{"title":"Terminator.Salvation.2009.DVDRip.Xvid.AC3-SiC","uid":6591385,"size":1406560002,"categoryP":"video","categoryS":"movies","magnet":"?xt=urn:btih:af26550d3805d18c50a97bf54be9d5f366b3b609&amp;dn=Terminator.Salvation.2009.DVDRip.Xvid.AC3-SiC&amp;tr=udp%3A%2F%2Ftracker.openbittorrent.com%3A80&amp;tr=udp%3A%2F%2Fopen.demonii.com%3A1337&amp;tr=udp%3A%2F%2Ftracker.coppersurfer.tk%3A6969&amp;tr=udp%3A%2F%2Fexodus.desync.com%3A6969","seeders":0,"leechers":1,"uploader":"sceneline","files":5,"time":1312839535,"description":"- &lt;a href=&quot;\nhttp://www.Speed.Cd&quot; rel=&quot;nofollow&quot; target=&quot;_NEW&quot;&gt;\nhttp://www.Speed.Cd&lt;/a&gt; \n       &lt;a href=&quot;\nhttp://www.Speed.Cd&quot; rel=&quot;nofollow&quot; target=&quot;_NEW&quot;&gt;\nhttp://www.Speed.Cd&lt;/a&gt;      fast  and The Hottest Private Tracker on the net\n\n(((--Registration will be open on june every weekend--)))\n\nPlease Seed back to make the speed Faster!!!\n\n------------------nfo--------------------------\n-\n\n\n\n\n\n\n\n\n\n\n\n\n\n\n\n\n\n\n\n\n\n\n\n\n\n\n\n\n\n\n\n\n\n\n\n\n\n\n\n\n          \n          \n              \n              \n                    \n                    \n                    \n                    \n\nTerminator.Salvation.2009.DVDRip.Xvid.AC3-SiC\n\nPoster:\n[img]http://leetleech.org/images/42788958318451554829.jpg[/img]\n\nIMDB Link:\nhttp://www.imdb.com/title/tt0438488/\n\nDescription:\nAfter Skynet has destroyed much of humanity in a nuclear holocaust, a group of \nsurvivors led by John Connor struggles to keep the machines from finishing the \njob\n\nMediaInfo:\nGeneral\nComplete name                    : C:\\Bezauk\\Vdub Outputs\\Terminator.Salvation.2009.DVDRip.Xvid.AC3-SiC\\Terminator.Salvation.2009.DVDRip.Xvid.AC3-SiC.avi\nFormat                           : AVI\nFormat/Info                      : Audio Video Interleave\nFile size                        : 1.30 GiB\nDuration                         : 1h 50mn\nOverall bit rate                 : 1 691 Kbps\n\nVideo\nID                               : 0\nFormat                           : MPEG-4 Visual\nFormat profile                   : Advanced Simple@L5\nFormat settings, BVOP            : Yes\nFormat settings, QPel            : No\nFormat settings, GMC             : No warppoints\nFormat settings, Matrix          : Default (H.263)\nMuxing mode                      : Packed bitstream\nCodec ID                         : XVID\nCodec ID/Hint                    : XviD\nDuration                         : 1h 50mn\nBit rate                         : 1 300 Kbps\nWidth                            : 720 pixels\nHeight                           : 304 pixels\nDisplay aspect ratio             : 2.35:1\nFrame rate                       : 25.000 fps\nResolution                       : 8 bits\nColorimetry                      : 4:2:0\nScan type                        : Progressive\nBits/(Pixel*Frame)               : 0.237\nStream size                      : 1 023 MiB (77%)\nWriting library                  : XviD 64\n\nAudio\nID                               : 1\nFormat                           : AC-3\nFormat/Info                      : Audio Coding 3\nFormat_Settings_ModeExtension    : CM (complete main)\nCodec ID                         : 2000\nDuration                         : 1h 50mn\nBit rate mode                    : Constant\nBit rate                         : 384 Kbps\nChannel(s)                       : 6 channels\nChannel positions                : Front: L C R, Side: L R, LFE\nSampling rate                    : 48.0 KHz\nStream size                      : 302 MiB (23%)\nAlignment                        : Aligned on interleaves\nInterleave, duration             : 64 ms (1.60 video frames)\nInterleave, preload duration     : 192 ms\nTitle                            : 6ch English\n\nScreenshots:\n[img]http://leetleech.org/images/79590268587080185044.png[/img]\n[img]http://leetleech.org/images/51267034897428814758.png[/img]\n[img]http://leetleech.org/images/35859179168315053896.png[/img]\n[img]http://leetleech.org/images/70400051120780164953.png[/img]\n[img]http://leetleech.org/images/49587921665348538061.png[/img]\n\nNote :   N/A \n\nSource : Original DVDR\n\nEncoder: Bezauk\n\nEnjoy!\n\nRespects to CaptainHomey, Cyanide, CM8, Rx, THC, ELEKTRI4KA, \nKillerhz, PA, YeFsTe, BoxSlots, MrRep and everyone in the struggle...","torrent":{"xt":"urn:btih:af26550d3805d18c50a97bf54be9d5f366b3b609","amp;dn":"Terminator.Salvation.2009.DVDRip.Xvid.AC3-SiC","amp;tr":["udp%3A%2F%2Ftracker.openbittorrent.com%3A80","udp%3A%2F%2Fopen.demonii.com%3A1337","udp%3A%2F%2Ftracker.coppersurfer.tk%3A6969","udp%3A%2F%2Fexodus.desync.com%3A6969"],"infoHash":"af26550d3805d18c50a97bf54be9d5f366b3b609","infoHashBuffer":{"type":"Buffer","data":[175,38,85,13,56,5,209,140,80,169,123,245,75,233,213,243,102,179,182,9]},"announce":[],"urlList":[]}}